<svg xmlns="http://www.w3.org/2000/svg" viewBox="0 0 200 45">
  <!-- Decathlon Logo -->
  <defs>
    <style>
      .dc-blue { fill: #3643BA; }
    </style>
  </defs>
  
  <!-- Orbit Symbol -->
  <g class="dc-blue" transform="translate(2, 2)">
    <path d="M20.5 0C9.2 0 0 9.2 0 20.5S9.2 41 20.5 41 41 31.8 41 20.5 31.8 0 20.5 0zm0 36.5c-8.8 0-16-7.2-16-16s7.2-16 16-16 16 7.2 16 16-7.2 16-16 16z"/>
    <path d="M20.5 8c-6.9 0-12.5 5.6-12.5 12.5 0 1.5.3 3 .8 4.3 1.8-7.5 8.2-13 15.7-13.8 2-.2 4 0 5.8.6C28 9.3 24.4 8 20.5 8z"/>
    <path d="M10.5 13c5-5 13-6 19-2-3.5-.8-7.5-.3-11 1.5-3.5 2-6 5.5-6.5 9.5-.5 2 0 4 .5 6-3.5-4.5-4.5-11-2-15z"/>
  </g>
  
  <!-- DECATHLON Text -->
  <text x="50" y="32" class="dc-blue" font-family="Arial, Helvetica, sans-serif" font-weight="900" font-size="24" letter-spacing="0.5">DECATHLON</text>
</svg>
